<?xml version="1.0" encoding="utf-8"?>
<svg version="1.1" id="predefinedmap" xmlns="http://www.w3.org/2000/svg" xmlns:xlink="http://www.w3.org/1999/xlink" x="0px" y="0"
	 viewBox="3 0 160 170">
<g>
	<path fill="#4C7128" d="M152.24,8.316l-31.395-7.238c-0.675-0.151-1.384-0.083-2.018,0.206L81.198,18.498L46.499,4.031
		c-0.751-0.314-1.595-0.326-2.356-0.028L7.718,18.196c-1.209,0.471-2.006,1.637-2.006,2.935v99.941c0,1.04,0.514,2.015,1.372,2.599
		c0.858,0.585,1.949,0.714,2.922,0.335l35.24-13.735l34.797,14.513c0.387,0.163,0.8,0.243,1.212,0.243
		c0.448,0,0.895-0.095,1.31-0.286l5.075-2.322c7.773,15.481,17.899,31.045,19.682,33.754c0.583,0.886,1.572,1.418,2.631,1.418
		c1.06,0,2.049-0.532,2.632-1.418c2.217-3.37,17.349-26.628,24.797-44.878l13.441,3.098c0.935,0.209,1.918-0.009,2.669-0.606
		c0.752-0.597,1.189-1.504,1.189-2.464V11.386C154.682,9.919,153.67,8.645,152.24,8.316z M109.955,148.628
		c-8.907-14.067-25.252-42.137-25.252-53.036c0-13.923,11.328-25.252,25.252-25.252s25.252,11.329,25.252,25.252
		C135.207,106.488,118.862,134.558,109.955,148.628z M148.382,107.365l-8.805-2.03c1.205-3.718,1.93-7.062,1.93-9.743
		c0-17.399-14.155-31.552-31.552-31.552c-17.397,0-31.552,14.153-31.552,31.552c0,5.231,2.725,12.952,6.503,21.153l-3.708,1.697
		l-34.699-14.473c-0.388-0.163-0.8-0.243-1.212-0.243c-0.387,0-0.775,0.071-1.144,0.215l-32.13,12.523V23.285l33.235-12.951
		l34.797,14.507c0.809,0.341,1.727,0.326,2.522-0.043l37.907-17.34l27.908,6.435V107.365z"/>
	<path fill="#4C7128" d="M45.287,23.005c-1.739,0-3.15,1.409-3.15,3.15v63.424c0,1.741,1.411,3.15,3.15,3.15
		c1.74,0,3.15-1.409,3.15-3.15V26.155C48.437,24.414,47.027,23.005,45.287,23.005z"/>
	<path fill="#4C7128" d="M81.256,35.282c-1.74,0-3.15,1.409-3.15,3.15v24.194c0,1.741,1.41,3.15,3.15,3.15
		c1.739,0,3.15-1.409,3.15-3.15V38.432C84.406,36.69,82.996,35.282,81.256,35.282z"/>
	<path fill="#4C7128" d="M117.685,21.651v32.057c0,1.741,1.411,3.15,3.15,3.15c1.74,0,3.15-1.409,3.15-3.15V21.651
		c0-1.741-1.41-3.15-3.15-3.15C119.096,18.501,117.685,19.91,117.685,21.651z"/>
	<path fill="#4C7128" d="M109.955,80.162c-6.492,0-11.774,5.285-11.774,11.779c0,6.491,5.282,11.769,11.774,11.769
		c6.492,0,11.774-5.279,11.774-11.769C121.729,85.447,116.447,80.162,109.955,80.162z M109.955,97.41
		c-3.018,0-5.474-2.455-5.474-5.469c0-3.021,2.456-5.479,5.474-5.479s5.474,2.458,5.474,5.479
		C115.429,94.956,112.973,97.41,109.955,97.41z"/>
</g>
</svg>
