<svg xmlns="http://www.w3.org/2000/svg" viewBox="3 0 160 170"><g fill="#4C7128"><path d="M152.24 8.316l-31.395-7.238c-.675-.15-1.384-.083-2.018.206l-37.63 17.214L46.5 4.03c-.752-.313-1.596-.325-2.357-.027L7.718 18.196c-1.21.47-2.006 1.637-2.006 2.935v99.943c0 1.04.514 2.015 1.372 2.6.858.584 1.95.713 2.922.334l35.24-13.735 34.797 14.514c.387.163.8.243 1.212.243.448 0 .895-.096 1.31-.287l5.075-2.32c7.773 15.48 17.9 31.044 19.682 33.753.583.886 1.572 1.418 2.63 1.418 1.06 0 2.05-.53 2.633-1.417 2.217-3.37 17.35-26.628 24.797-44.878l13.44 3.097c.936.21 1.92-.01 2.67-.606.752-.596 1.19-1.503 1.19-2.463v-99.94c0-1.468-1.012-2.74-2.442-3.07zm-42.285 140.312c-8.907-14.067-25.252-42.137-25.252-53.036 0-13.923 11.328-25.252 25.252-25.252s25.252 11.33 25.252 25.252c0 10.896-16.345 38.966-25.252 53.036zm38.427-41.263l-8.805-2.03c1.205-3.718 1.93-7.062 1.93-9.743 0-17.4-14.155-31.552-31.552-31.552S78.403 78.193 78.403 95.592c0 5.23 2.725 12.952 6.503 21.153l-3.708 1.697-34.7-14.473c-.387-.165-.8-.245-1.21-.245-.388 0-.776.07-1.145.215l-32.13 12.524v-93.18l33.235-12.95L80.045 24.84c.81.342 1.727.327 2.522-.042l37.907-17.34 27.908 6.435v93.472z"/><path d="M45.287 23.005c-1.74 0-3.15 1.41-3.15 3.15V89.58c0 1.74 1.41 3.15 3.15 3.15s3.15-1.41 3.15-3.15V26.154c0-1.74-1.41-3.15-3.15-3.15zm35.97 12.277c-1.74 0-3.15 1.41-3.15 3.15v24.194c0 1.74 1.41 3.15 3.15 3.15s3.15-1.41 3.15-3.15V38.432c0-1.742-1.41-3.15-3.15-3.15zm36.428-13.632v32.06c0 1.74 1.41 3.15 3.15 3.15s3.15-1.41 3.15-3.15V21.65c0-1.74-1.41-3.15-3.15-3.15s-3.15 1.41-3.15 3.15zm-7.73 58.512c-6.492 0-11.774 5.285-11.774 11.78 0 6.49 5.284 11.768 11.776 11.768s11.774-5.28 11.774-11.77c0-6.493-5.283-11.778-11.775-11.778zm0 17.248c-3.018 0-5.474-2.455-5.474-5.47 0-3.02 2.458-5.478 5.476-5.478s5.474 2.458 5.474 5.48c0 3.014-2.457 5.468-5.475 5.468z"/></g></svg>